<svg viewBox="0 0 156.625 176.75" preserveAspectRatio="xMinYMin meet" data-src="chap13diag-82" xmlns:dc="http://purl.org/dc/elements/1.1/" xmlns:cc="http://creativecommons.org/ns#" xmlns:rdf="http://www.w3.org/1999/02/22-rdf-syntax-ns#" xmlns:svg="http://www.w3.org/2000/svg" xmlns="http://www.w3.org/2000/svg" xmlns:inkscape="http://www.inkscape.org/namespaces/inkscape" version="1.1" width="156.625" height="176.75"  xml:space="preserve"><metadata ><rdf:RDF><cc:Work rdf:about=""><dc:format>image/svg+xml</dc:format><dc:type rdf:resource="http://purl.org/dc/dcmitype/StillImage" /></cc:Work></rdf:RDF></metadata><defs ><clipPath id="chap13diag-82-clipPath18"><path d="M 0,0 102,0 102,116 0,116 0,0 z"  /></clipPath></defs><g transform="translate(5,5)"><g transform="scale(1.15)"><g transform="matrix(1.25,0,0,-1.25,0,145)" ><g ><g ><g clip-path="url(#chap13diag-82-clipPath18)" ><g transform="translate(0,116)" ><g transform="translate(44,-94)" ><path d="m -34.56079,-12.96057 0,72"  style="fill:none;stroke:currentColor;stroke-width:0.5;stroke-linecap:round;stroke-linejoin:round;stroke-miterlimit:10;stroke-opacity:1;stroke-dasharray:0.5, 2.5;stroke-dashoffset:1.25" /><path d="M 43.20044,0 C 43.20044,11.92947 23.85895,21.60022 0,21.60022 -23.85895,21.60022 -43.20044,11.92947 -43.20044,0"  style="fill:none;stroke:currentColor;stroke-width:0.5;stroke-linecap:round;stroke-linejoin:round;stroke-miterlimit:10;stroke-opacity:1;stroke-dasharray:3, 3;" /><path d="m -43.20044,0 c 0,-11.92947 19.34149,-21.60022 43.20044,-21.60022 23.85895,0 43.20044,9.67075 43.20044,21.60022"  style="fill:none;stroke:currentColor;stroke-width:0.5;stroke-linecap:round;stroke-linejoin:round;stroke-miterlimit:10;stroke-opacity:1;stroke-dasharray:none" /><path d="M 43.20044,72 C 43.20044,83.92947 23.85895,93.60022 0,93.60022 -23.85895,93.60022 -43.20044,83.92947 -43.20044,72 -43.20044,60.07053 -23.85895,50.39978 0,50.39978 c 23.85895,0 43.20044,9.67075 43.20044,21.60022"  style="fill:none;stroke:currentColor;stroke-width:0.5;stroke-linecap:round;stroke-linejoin:round;stroke-miterlimit:10;stroke-opacity:1;stroke-dasharray:none" /><path d="M 43.20044,0 0,0"  style="fill:none;stroke:currentColor;stroke-width:0.5;stroke-linecap:round;stroke-linejoin:round;stroke-miterlimit:10;stroke-opacity:1;stroke-dasharray:3, 3;" /><path d="M 0,0 0,72"  style="fill:none;stroke:currentColor;stroke-width:0.5;stroke-linecap:round;stroke-linejoin:round;stroke-miterlimit:10;stroke-opacity:1;stroke-dasharray:3, 3;" /><path d="m 0,72 43.20044,0"  style="fill:none;stroke:currentColor;stroke-width:0.5;stroke-linecap:round;stroke-linejoin:round;stroke-miterlimit:10;stroke-opacity:1;stroke-dasharray:none" /><path d="m 43.20044,0 0,72"  style="fill:none;stroke:currentColor;stroke-width:0.5;stroke-linecap:round;stroke-linejoin:round;stroke-miterlimit:10;stroke-opacity:1;stroke-dasharray:none" /><path d="m -43.20044,0 0,72"  style="fill:none;stroke:currentColor;stroke-width:0.5;stroke-linecap:round;stroke-linejoin:round;stroke-miterlimit:10;stroke-opacity:1;stroke-dasharray:none" /><path d="m 0,67.01869 4.98131,0 0,4.98131"  style="fill:none;stroke:currentColor;stroke-width:0.5;stroke-linecap:round;stroke-linejoin:round;stroke-miterlimit:10;stroke-opacity:1;stroke-dasharray:none" /><path d="m 4.98131,0 0,4.98131 -4.98131,0"  style="fill:none;stroke:currentColor;stroke-width:0.5;stroke-linecap:round;stroke-linejoin:round;stroke-miterlimit:10;stroke-opacity:1;stroke-dasharray:none" /><g transform="translate(0,116)" > <text transform="matrix(1,0,0,-1,-14.8944,-119.8041)" ><tspan x="0" y="0"  style="font-size:10.90909958px;font-variant:normal;writing-mode:lr-tb;fill:currentColor;fill-opacity:1;fill-rule:nonzero;stroke:none;font-family:STIX;font-style:italic">O</tspan></text> <text transform="matrix(1,0,0,-1,-6.4072,-115.8441)" ><tspan x="0.3" y="3.0"  style="font-size:10.97009993px;font-variant:normal;font-weight:normal;writing-mode:lr-tb;fill:currentColor;fill-opacity:1;fill-rule:nonzero;stroke:none;font-family:STIX;font-style:italic">'</tspan></text> <text transform="matrix(1,0,0,-1,46.2004,-47.7172)" ><tspan x="-57.687599" y="0.0219"  style="font-size:10.90909958px;font-variant:normal;writing-mode:lr-tb;fill:currentColor;fill-opacity:1;fill-rule:nonzero;stroke:none;font-family:STIX;font-style:italic">O</tspan></text> </g></g></g></g></g></g></g></g></g></svg>
