<svg viewBox="0 0 431.18749999999994 189.6875" preserveAspectRatio="xMinYMin meet" data-src="chap13diag-63" xmlns:dc="http://purl.org/dc/elements/1.1/" xmlns:cc="http://creativecommons.org/ns#" xmlns:rdf="http://www.w3.org/1999/02/22-rdf-syntax-ns#" xmlns:svg="http://www.w3.org/2000/svg" xmlns="http://www.w3.org/2000/svg" xmlns:inkscape="http://www.inkscape.org/namespaces/inkscape" version="1.1" width="431.18749999999994" height="189.6875"  xml:space="preserve"><metadata ><rdf:RDF><cc:Work rdf:about=""><dc:format>image/svg+xml</dc:format><dc:type rdf:resource="http://purl.org/dc/dcmitype/StillImage" /></cc:Work></rdf:RDF></metadata><defs ><clipPath id="chap13diag-63-clipPath18"><path d="M 0,0 293,0 293,125 0,125 0,0 z"  /></clipPath></defs><g transform="translate(5,5)"><g transform="scale(1.15)"><g transform="matrix(1.25,0,0,-1.25,0,156.25)" ><g ><g ><g clip-path="url(#chap13diag-63-clipPath18)" ><g transform="translate(0,125)" ><g transform="translate(217,-58)" ><path d="M 0,0 29.4895,20.6488 57.06683,-2.4917 44.7539,-36.3208 9.3175,-34.77338 0,0 z"  style="fill:#d9d9d9;fill-opacity:1;fill-rule:nonzero;stroke:none" /><path d="M 9.3175,-34.77338 6.23927,-43.23065 -2.80893,-19.52504 -5.1622,7.37238 0,0 9.3175,-34.77338 z"  style="fill:#d9d9d9;fill-opacity:1;fill-rule:nonzero;stroke:none" /><path d="M 29.4895,20.6488 33.68236,36.29672 13.9297,26.46428 -5.1622,7.37238 0,0 29.4895,20.6488 z"  style="fill:#cccccc;fill-opacity:1;fill-rule:nonzero;stroke:none" /><path d="M 29.4895,20.6488 33.68236,36.29672 59.78421,24.12514 74.79327,0.63391 57.06683,-2.4917 29.4895,20.6488 z"  style="fill:#d9d9d9;fill-opacity:1;fill-rule:nonzero;stroke:none" /><path d="M 44.7539,-36.3208 55.78467,-45.57686 70.10486,-25.95575 74.79327,0.63391 57.06683,-2.4917 44.7539,-36.3208 z"  style="fill:#e6e6e6;fill-opacity:1;fill-rule:nonzero;stroke:none" /><path d="m 9.3175,-34.77338 35.4364,-1.54742 11.03077,-9.25606 -19.49919,-3.43819 -30.04621,5.7844 3.07823,8.45727 z"  style="fill:#e0e0e0;fill-opacity:1;fill-rule:nonzero;stroke:none" /><path d="M 37.85432,-31.08344 58.30923,-17.69635 54.24342,8.90215 29.20338,11.1906 19.17978,-11.52171 37.85432,-31.08344"  style="fill:none;stroke:#b3b3b3;stroke-width:0.5;stroke-linecap:round;stroke-linejoin:round;stroke-miterlimit:10;stroke-opacity:1;stroke-dasharray:none" /><path d="m 36.28548,-49.01505 1.56884,17.93161"  style="fill:none;stroke:#b3b3b3;stroke-width:0.5;stroke-linecap:round;stroke-linejoin:round;stroke-miterlimit:10;stroke-opacity:1;stroke-dasharray:none" /><path d="m 70.10486,-25.95575 -11.79563,8.2594"  style="fill:none;stroke:#b3b3b3;stroke-width:0.5;stroke-linecap:round;stroke-linejoin:round;stroke-miterlimit:10;stroke-opacity:1;stroke-dasharray:none" /><path d="M 59.78421,24.12514 54.24342,8.90215"  style="fill:none;stroke:#b3b3b3;stroke-width:0.5;stroke-linecap:round;stroke-linejoin:round;stroke-miterlimit:10;stroke-opacity:1;stroke-dasharray:none" /><path d="M 13.9297,26.46428 29.20338,11.1906"  style="fill:none;stroke:#b3b3b3;stroke-width:0.5;stroke-linecap:round;stroke-linejoin:round;stroke-miterlimit:10;stroke-opacity:1;stroke-dasharray:none" /><path d="m -2.80893,-19.52504 21.98871,8.00333"  style="fill:none;stroke:#b3b3b3;stroke-width:0.5;stroke-linecap:round;stroke-linejoin:round;stroke-miterlimit:10;stroke-opacity:1;stroke-dasharray:none" /><path d="M 0,0 29.4895,20.6488 57.06683,-2.4917 44.7539,-36.3208 9.3175,-34.77338 0,0 z"  style="fill:none;stroke:currentColor;stroke-width:0.5;stroke-linecap:round;stroke-linejoin:round;stroke-miterlimit:10;stroke-opacity:1;stroke-dasharray:none" /><path d="M 9.3175,-34.77338 6.23927,-43.23065 -2.80893,-19.52504 -5.1622,7.37238 0,0"  style="fill:none;stroke:currentColor;stroke-width:0.5;stroke-linecap:round;stroke-linejoin:round;stroke-miterlimit:10;stroke-opacity:1;stroke-dasharray:none" /><path d="M 29.4895,20.6488 33.68236,36.29672 13.9297,26.46428 -5.1622,7.37238 0,0"  style="fill:none;stroke:currentColor;stroke-width:0.5;stroke-linecap:round;stroke-linejoin:round;stroke-miterlimit:10;stroke-opacity:1;stroke-dasharray:none" /><path d="M 57.06683,-2.4917 74.79327,0.63391 59.78421,24.12514 33.68236,36.29672"  style="fill:none;stroke:currentColor;stroke-width:0.5;stroke-linecap:round;stroke-linejoin:round;stroke-miterlimit:10;stroke-opacity:1;stroke-dasharray:none" /><path d="m 44.7539,-36.3208 11.03077,-9.25606 14.32019,19.62111 4.68841,26.58966"  style="fill:none;stroke:currentColor;stroke-width:0.5;stroke-linecap:round;stroke-linejoin:round;stroke-miterlimit:10;stroke-opacity:1;stroke-dasharray:none" /><path d="m 55.78467,-45.57686 -19.49919,-3.43819 -30.04621,5.7844"  style="fill:none;stroke:currentColor;stroke-width:0.5;stroke-linecap:round;stroke-linejoin:round;stroke-miterlimit:10;stroke-opacity:1;stroke-dasharray:none" /><path d="m -126,-32.39978 -24.87524,34.23779 -40.24881,-13.07739 -4.8e-4,-42.31982 40.24811,-13.07817 24.87642,34.23759 40.24911,13.07895 -7.7e-4,42.31959 -40.24871,13.07704 -24.87487,-34.23779 4.7e-4,42.31981 -40.24809,13.07816 -24.87548,-34.23651 24.87429,-34.23885"  style="fill:none;stroke:currentColor;stroke-width:0.5;stroke-linecap:round;stroke-linejoin:round;stroke-miterlimit:10;stroke-opacity:1;stroke-dasharray:none" /><path d="m -61.19989,-7.19989 32.39978,0"  style="fill:none;stroke:currentColor;stroke-width:0.5;stroke-linecap:round;stroke-linejoin:round;stroke-miterlimit:10;stroke-opacity:1;stroke-dasharray:none" /><path d="m -32.49564,-8.73067 3.69553,1.53078 -3.69553,1.53078 0,-3.06156 z"  style="fill:currentColor;fill-opacity:1;fill-rule:nonzero;stroke:currentColor;stroke-width:0.5;stroke-linecap:round;stroke-linejoin:round;stroke-miterlimit:10;stroke-opacity:1;stroke-dasharray:none" /><g transform="translate(0,125)"  /></g></g></g></g></g></g></g></g></svg>