<svg viewBox="0 0 83.16874999999999 83.16874999999999" preserveAspectRatio="xMinYMin meet" data-src="geometry_103-pdf" xmlns:dc="http://purl.org/dc/elements/1.1/" xmlns:cc="http://creativecommons.org/ns#" xmlns:rdf="http://www.w3.org/1999/02/22-rdf-syntax-ns#" xmlns:svg="http://www.w3.org/2000/svg" xmlns="http://www.w3.org/2000/svg" xmlns:inkscape="http://www.inkscape.org/namespaces/inkscape" version="1.1" width="83.16874999999999" height="83.16874999999999"  xml:space="preserve"><metadata ><rdf:RDF><cc:Work rdf:about=""><dc:format>image/svg+xml</dc:format><dc:type rdf:resource="http://purl.org/dc/dcmitype/StillImage" /></cc:Work></rdf:RDF></metadata><defs  /><g transform="translate(5,5)"><g transform="scale(1.15)"><g transform="matrix(1.25,0,0,-1.25,0,63.625)" ><g transform="scale(0.1,0.1)" ><path d="m 506.5,2.5 c 0,133.668 -53.102,261.863 -147.621,356.379 C 264.363,453.398 136.168,506.5 2.5,506.5 l 0,0 C 2.5,372.828 55.5977,244.633 150.117,150.117 244.633,55.5977 372.828,2.5 506.5,2.5 l 0,0"  style="fill:#b2b2b2;fill-opacity:1;fill-rule:nonzero;stroke:none" /><path d="m 506.5,2.5 0,504 -504,0 0,-504 504,0 c 0,133.668 -53.102,261.863 -147.621,356.379 C 264.363,453.398 136.168,506.5 2.5,506.5 l 0,0 C 2.5,372.828 55.5977,244.633 150.117,150.117 244.633,55.5977 372.828,2.5 506.5,2.5"  style="fill:none;stroke:currentColor;stroke-width:5;stroke-linecap:round;stroke-linejoin:round;stroke-miterlimit:10;stroke-opacity:1;stroke-dasharray:none" /></g></g></g></g></svg>