<svg viewBox="0 0 349.6956365 162.9543125" preserveAspectRatio="xMinYMin meet" data-src="geometry_57-pdf" xmlns:dc="http://purl.org/dc/elements/1.1/" xmlns:cc="http://creativecommons.org/ns#" xmlns:rdf="http://www.w3.org/1999/02/22-rdf-syntax-ns#" xmlns:svg="http://www.w3.org/2000/svg" xmlns="http://www.w3.org/2000/svg" xmlns:inkscape="http://www.inkscape.org/namespaces/inkscape" version="1.1" width="349.6956365" height="162.9543125"  xml:space="preserve"><metadata ><rdf:RDF><cc:Work rdf:about=""><dc:format>image/svg+xml</dc:format><dc:type rdf:resource="http://purl.org/dc/dcmitype/StillImage" /></cc:Work></rdf:RDF></metadata><defs ><clipPath id="geometry_57-pdf-clipPath22"><path d="m 0,0 236.31,0 0,106.4 L 0,106.4 0,0 z"  /></clipPath></defs><g transform="translate(5,5)"><g transform="scale(1.15)"><g transform="matrix(1.25,0,0,-1.25,0,133.00375)" ><g transform="translate(0.015,0.013)" ><g ><g ><g ><g clip-path="url(#geometry_57-pdf-clipPath22)" ><g transform="scale(0.1,0.1)" ><path d="m 740.598,209.016 -630,720 2250.002,-720 -1620.002,0"  style="fill:#cccccc;fill-opacity:1;fill-rule:nonzero;stroke:none" /><path d="m 110.598,209.016 0,720 2250.002,0 0,-720 -2250.002,0"  style="fill:none;stroke:currentColor;stroke-width:5;stroke-linecap:round;stroke-linejoin:round;stroke-miterlimit:10;stroke-opacity:1;stroke-dasharray:none" /><path d="m 740.598,99.5156 0,75.0004"  style="fill:none;stroke:currentColor;stroke-width:5;stroke-linecap:round;stroke-linejoin:round;stroke-miterlimit:10;stroke-opacity:1;stroke-dasharray:none" /><path d="m 2360.6,99.5156 0,75.0004"  style="fill:none;stroke:currentColor;stroke-width:5;stroke-linecap:round;stroke-linejoin:round;stroke-miterlimit:10;stroke-opacity:1;stroke-dasharray:none" /><path d="m 740.598,137.016 1620.002,0"  style="fill:none;stroke:currentColor;stroke-width:5;stroke-linecap:round;stroke-linejoin:round;stroke-miterlimit:10;stroke-opacity:1;stroke-dasharray:none" /></g></g></g></g></g><g transform="translate(-0.015,-0.013)" ><text transform="matrix(1,0,0,-1,1.51,52.921)" ><tspan x="0" y="0"  style="font-size:11.9552002px;font-variant:normal;writing-mode:lr-tb;fill:currentColor;fill-opacity:1;fill-rule:nonzero;stroke:none;font-family:STIX;font-style:normal">8</tspan><tspan x="116.087 122.0646" y="-43.796001"  style="font-size:11.9552002px;font-variant:normal;writing-mode:lr-tb;fill:currentColor;fill-opacity:1;fill-rule:nonzero;stroke:none;font-family:STIX;font-style:normal">25</tspan><tspan x="147.58701 153.56461" y="51.196999"  style="font-size:11.9552002px;font-variant:normal;writing-mode:lr-tb;fill:currentColor;fill-opacity:1;fill-rule:nonzero;stroke:none;font-family:STIX;font-style:normal">18</tspan></text> </g></g></g></g></g></svg>