<svg viewBox="0 0 502.34374999999994 138.41475" preserveAspectRatio="xMinYMin meet" data-src="geometry_56-pdf" xmlns:dc="http://purl.org/dc/elements/1.1/" xmlns:cc="http://creativecommons.org/ns#" xmlns:rdf="http://www.w3.org/1999/02/22-rdf-syntax-ns#" xmlns:svg="http://www.w3.org/2000/svg" xmlns="http://www.w3.org/2000/svg" xmlns:inkscape="http://www.inkscape.org/namespaces/inkscape" version="1.1" width="502.34374999999994" height="138.41475"  xml:space="preserve"><metadata ><rdf:RDF><cc:Work rdf:about=""><dc:format>image/svg+xml</dc:format><dc:type rdf:resource="http://purl.org/dc/dcmitype/StillImage" /></cc:Work></rdf:RDF></metadata><defs ><clipPath id="geometry_56-pdf-clipPath22"><path d="m 0,0 342.5,0 0,89.33 L 0,89.33 0,0 z"  /></clipPath></defs><g transform="translate(5,5)"><g transform="scale(1.15)"><g transform="matrix(1.25,0,0,-1.25,0,111.665)" ><g transform="translate(0.015,0.012)" ><g ><g ><g ><g clip-path="url(#geometry_56-pdf-clipPath22)" ><g transform="scale(0.1,0.1)" ><path d="m 2.5,170.82 0,720 1620,-720 -1620,0"  style="fill:#cccccc;fill-opacity:1;fill-rule:nonzero;stroke:none" /><path d="m 2.5,170.82 0,720 1620,0 0,-720 -1620,0"  style="fill:none;stroke:currentColor;stroke-width:5;stroke-linecap:round;stroke-linejoin:round;stroke-miterlimit:10;stroke-opacity:1;stroke-dasharray:none" /><path d="m 1802.5,170.82 1620,0 -1044,720 -576,-720"  style="fill:#cccccc;fill-opacity:1;fill-rule:nonzero;stroke:none" /><path d="m 1802.5,170.82 1620,0 0,720 -1620,0 0,-720 z"  style="fill:none;stroke:currentColor;stroke-width:5;stroke-linecap:round;stroke-linejoin:round;stroke-miterlimit:10;stroke-opacity:1;stroke-dasharray:none" /></g></g></g></g></g><g transform="translate(-0.015,-0.012)" ><text transform="matrix(1,0,0,-1,41.854,4.885)" ><tspan x="0 7.9860735 13.963674 20.718361 24.197325 27.52087 35.578674 41.831245 46.553547 50.032513 56.010113 62.968037 69.615128 73.094093" y="0"  style="font-size:11.9552002px;font-variant:normal;writing-mode:lr-tb;fill:currentColor;fill-opacity:1;fill-rule:nonzero;stroke:none;font-family:STIX;font-style:normal">Ravi’sTriangle</tspan><tspan x="178.03683 186.02292 192.00052 198.95844 206.16742 209.49097 217.54877 223.80135 228.52365 232.00261 237.98021 244.93814 251.58524 255.06419" y="0"  style="font-size:11.9552002px;font-variant:normal;writing-mode:lr-tb;fill:currentColor;fill-opacity:1;fill-rule:nonzero;stroke:none;font-family:STIX;font-style:normal">Ranu’sTriangle</tspan></text> </g></g></g></g></g></svg>